<mxfile host="app.diagrams.net" modified="2024-01-08T04:02:44.487Z" agent="Mozilla/5.0 (Macintosh; Intel Mac OS X 10_15_7) AppleWebKit/537.36 (KHTML, like Gecko) Chrome/120.0.0.0 Safari/537.36 Edg/120.0.0.0" etag="OmwsSRG0zSs_jQpiq32K" version="22.1.17" type="github">
  <diagram name="第 1 页" id="_f0jQLligPuGgjY3-sxE">
    <mxGraphModel dx="933" dy="666" grid="1" gridSize="10" guides="1" tooltips="1" connect="1" arrows="1" fold="1" page="1" pageScale="1" pageWidth="827" pageHeight="1169" math="0" shadow="0">
      <root>
        <mxCell id="0" />
        <mxCell id="1" parent="0" />
        <mxCell id="4d1iELA9zwMFfN9gE_KR-1" value="&lt;div style=&quot;line-height: 140%; font-size: 18px;&quot;&gt;&lt;font style=&quot;font-size: 18px;&quot; face=&quot;Times New Roman&quot;&gt;&lt;span style=&quot;background-color: initial;&quot;&gt;[S3] Russia’s foray into Syria took yet another heavy toll this week, when that nation’s Defense Ministry confirmed that a major &lt;/span&gt;&lt;span style=&quot;background-color: rgb(151, 208, 119);&quot;&gt;general&lt;/span&gt;&lt;span style=&quot;background-color: initial;&quot;&gt; was &lt;/span&gt;&lt;span style=&quot;background-color: rgb(33, 218, 255);&quot;&gt;killed&lt;/span&gt;&lt;span style=&quot;background-color: initial;&quot;&gt; in Syria by an improvised explosive device, &lt;/span&gt;&lt;span style=&quot;background-color: rgb(151, 208, 119);&quot;&gt;Al-Monitor online&lt;/span&gt;&lt;span style=&quot;background-color: initial;&quot;&gt; &lt;/span&gt;&lt;span style=&quot;background-color: rgb(33, 218, 255);&quot;&gt;reported&lt;/span&gt;&lt;span style=&quot;background-color: initial;&quot;&gt;.&amp;nbsp;&lt;/span&gt;&lt;br&gt;&lt;/font&gt;&lt;/div&gt;&lt;div style=&quot;line-height: 140%; font-size: 18px;&quot;&gt;&lt;span style=&quot;background-color: initial;&quot;&gt;&lt;font style=&quot;font-size: 18px;&quot; face=&quot;BzUFcNxEyqF3HpmEFVSp&quot;&gt;&lt;br&gt;&lt;/font&gt;&lt;/span&gt;&lt;/div&gt;&lt;div style=&quot;line-height: 140%; font-size: 18px;&quot;&gt;&lt;font face=&quot;Times New Roman&quot; style=&quot;font-size: 18px;&quot;&gt;[S4] Major General &lt;span style=&quot;background-color: rgb(151, 208, 119);&quot;&gt;Vyacheslav Gladkikh&lt;/span&gt; &lt;span style=&quot;background-color: rgb(33, 218, 255);&quot;&gt;died&lt;/span&gt; after a roadside IED detonated under a convoy of Russian soldiers and Syrian pro-regime militiamen near the city of &lt;span style=&quot;background-color: rgb(151, 208, 119);&quot;&gt;Deir ez-Zor&lt;/span&gt;.&amp;nbsp;&lt;/font&gt;&lt;/div&gt;&lt;div style=&quot;font-size: 18px; line-height: 140%;&quot;&gt;&lt;br&gt;&lt;/div&gt;" style="text;html=1;strokeColor=none;fillColor=none;align=left;verticalAlign=middle;whiteSpace=wrap;rounded=0;" parent="1" vertex="1">
          <mxGeometry x="100" y="370" width="580" height="270" as="geometry" />
        </mxCell>
        <mxCell id="4d1iELA9zwMFfN9gE_KR-3" value="" style="curved=1;endArrow=classic;html=1;rounded=0;" parent="1" edge="1">
          <mxGeometry width="50" height="50" relative="1" as="geometry">
            <mxPoint x="579" y="427" as="sourcePoint" />
            <mxPoint x="479" y="427" as="targetPoint" />
            <Array as="points">
              <mxPoint x="529" y="337" />
            </Array>
          </mxGeometry>
        </mxCell>
        <mxCell id="4d1iELA9zwMFfN9gE_KR-4" value="&lt;font face=&quot;宋体-简&quot; style=&quot;font-size: 15px;&quot; color=&quot;#ff0000&quot;&gt;&lt;b style=&quot;font-size: 15px;&quot;&gt;受害者&lt;/b&gt;&lt;/font&gt;" style="edgeLabel;html=1;align=center;verticalAlign=middle;resizable=0;points=[];fontSize=15;labelBackgroundColor=none;" parent="4d1iELA9zwMFfN9gE_KR-3" vertex="1" connectable="0">
          <mxGeometry x="-0.0953" y="-3" relative="1" as="geometry">
            <mxPoint x="-9" y="53" as="offset" />
          </mxGeometry>
        </mxCell>
        <mxCell id="4d1iELA9zwMFfN9gE_KR-5" value="" style="curved=1;endArrow=classic;html=1;rounded=0;" parent="1" edge="1">
          <mxGeometry width="50" height="50" relative="1" as="geometry">
            <mxPoint x="514" y="477" as="sourcePoint" />
            <mxPoint x="414" y="477" as="targetPoint" />
            <Array as="points">
              <mxPoint x="464" y="527" />
            </Array>
          </mxGeometry>
        </mxCell>
        <mxCell id="4d1iELA9zwMFfN9gE_KR-6" value="&lt;font face=&quot;宋体-简&quot; color=&quot;#ff0000&quot; style=&quot;font-size: 15px;&quot;&gt;&lt;b style=&quot;font-size: 15px;&quot;&gt;通讯员&lt;/b&gt;&lt;/font&gt;" style="edgeLabel;html=1;align=center;verticalAlign=middle;resizable=0;points=[];fontSize=15;" parent="4d1iELA9zwMFfN9gE_KR-5" vertex="1" connectable="0">
          <mxGeometry x="-0.0953" y="-3" relative="1" as="geometry">
            <mxPoint y="-23" as="offset" />
          </mxGeometry>
        </mxCell>
        <mxCell id="4d1iELA9zwMFfN9gE_KR-7" value="" style="curved=1;endArrow=classic;html=1;rounded=0;" parent="1" edge="1">
          <mxGeometry width="50" height="50" relative="1" as="geometry">
            <mxPoint x="424" y="506" as="sourcePoint" />
            <mxPoint x="324" y="506" as="targetPoint" />
            <Array as="points">
              <mxPoint x="374" y="460" />
            </Array>
          </mxGeometry>
        </mxCell>
        <mxCell id="4d1iELA9zwMFfN9gE_KR-8" value="&lt;font face=&quot;宋体-简&quot; style=&quot;font-size: 15px;&quot; color=&quot;#ff0000&quot;&gt;&lt;b style=&quot;font-size: 15px;&quot;&gt;受害者&lt;/b&gt;&lt;/font&gt;" style="edgeLabel;html=1;align=center;verticalAlign=middle;resizable=0;points=[];fontSize=15;labelBackgroundColor=none;" parent="4d1iELA9zwMFfN9gE_KR-7" vertex="1" connectable="0">
          <mxGeometry x="-0.0953" y="-3" relative="1" as="geometry">
            <mxPoint x="-8" y="36" as="offset" />
          </mxGeometry>
        </mxCell>
        <mxCell id="4d1iELA9zwMFfN9gE_KR-9" value="" style="curved=1;endArrow=classic;html=1;rounded=0;" parent="1" edge="1">
          <mxGeometry width="50" height="50" relative="1" as="geometry">
            <mxPoint x="430" y="530" as="sourcePoint" />
            <mxPoint x="240" y="570" as="targetPoint" />
            <Array as="points">
              <mxPoint x="424" y="570" />
            </Array>
          </mxGeometry>
        </mxCell>
        <mxCell id="4d1iELA9zwMFfN9gE_KR-10" value="&lt;font face=&quot;宋体-简&quot; color=&quot;#ff0000&quot; style=&quot;font-size: 15px;&quot;&gt;&lt;b style=&quot;font-size: 15px;&quot;&gt;地点&lt;/b&gt;&lt;/font&gt;" style="edgeLabel;html=1;align=center;verticalAlign=middle;resizable=0;points=[];fontSize=15;" parent="4d1iELA9zwMFfN9gE_KR-9" vertex="1" connectable="0">
          <mxGeometry x="-0.0953" y="-3" relative="1" as="geometry">
            <mxPoint x="23" y="-8" as="offset" />
          </mxGeometry>
        </mxCell>
      </root>
    </mxGraphModel>
  </diagram>
</mxfile>
